<!-- created by svgstack.com | Attribution is required. --><svg width="111" height="36" viewBox="0 0 111 36" fill="none" xmlns="http://www.w3.org/2000/svg" xmlns:xlink="http://www.w3.org/1999/xlink"><g clip-path="url(#clip0_103_2774)"><path d="M100.211 2.34375e-05H9.533C9.166 2.34375e-05 8.804 2.34374e-05 8.439 0.00202344C8.132 0.00402344 7.829 0.0100234 7.52 0.0150234C6.854 0.0310234 6.181 0.0720234 5.516 0.191023C4.847 0.309023 4.225 0.509023 3.616 0.818023C3.017 1.12502 2.47 1.52302 1.997 1.99702C1.519 2.47002 1.122 3.01902 0.819 3.61802C0.508 4.22602 0.311 4.85102 0.194 5.52102C0.074 6.18302 0.032 6.85202 0.015 7.52202C0.006 7.82902 0.005 8.13602 0 8.44302C0 8.80502 0 9.16802 0 9.53502V24.483C0 24.852 0 25.213 0 25.577C0.005 25.887 0.006 26.188 0.015 26.499C0.032 27.169 0.074 27.839 0.194 28.501C0.311 29.171 0.508 29.799 0.819 30.405C1.122 31.001 1.519 31.549 1.997 32.019C2.47 32.496 3.017 32.894 3.615 33.197C4.224 33.509 4.846 33.707 5.516 33.828C6.18 33.947 6.854 33.986 7.52 34.005C7.829 34.012 8.133 34.016 8.439 34.016C8.805 34.018 9.167 34.018 9.534 34.018H100.212C100.571 34.018 100.936 34.018 101.296 34.016C101.601 34.016 101.913 34.012 102.218 34.005C102.888 33.987 103.56 33.947 104.218 33.828C104.888 33.707 105.511 33.51 106.126 33.197C106.723 32.893 107.27 32.496 107.743 32.019C108.219 31.549 108.616 31.001 108.924 30.405C109.231 29.799 109.43 29.171 109.543 28.501C109.666 27.839 109.705 27.169 109.729 26.499C109.733 26.188 109.733 25.888 109.733 25.577C109.741 25.214 109.741 24.853 109.741 24.483V9.53402C109.741 9.16802 109.741 8.80502 109.733 8.44202C109.733 8.13502 109.733 7.82802 109.729 7.52102C109.706 6.85102 109.667 6.18102 109.543 5.51902C109.43 4.84902 109.231 4.22402 108.924 3.61602C108.615 3.01702 108.219 2.46902 107.743 1.99502C107.27 1.52102 106.724 1.12302 106.126 0.816023C105.511 0.506023 104.888 0.306023 104.218 0.189023C103.56 0.0700234 102.888 0.0290234 102.218 0.0120234C101.913 0.00702344 101.601 0.00102344 101.296 -0.000976562C100.936 2.34375e-05 100.571 2.34375e-05 100.211 2.34375e-05Z" fill="#A6A6A6"/><path d="M100.211 0.650024C100.569 0.650024 100.933 0.650024 101.291 0.652024C101.537 0.654024 101.789 0.658024 102.037 0.662024L102.201 0.665024C102.73 0.678024 103.423 0.709024 104.105 0.832024C104.724 0.940024 105.289 1.12602 105.828 1.39702C106.367 1.67402 106.856 2.03002 107.283 2.45802C107.706 2.87802 108.063 3.36802 108.342 3.91002C108.613 4.44902 108.796 5.01102 108.902 5.63902C109.019 6.26902 109.055 6.92702 109.077 7.53002C109.081 7.83402 109.081 8.13902 109.081 8.45602C109.089 8.81402 109.089 9.17203 109.089 9.53403V24.482C109.089 24.846 109.089 25.203 109.081 25.576C109.081 25.884 109.081 26.182 109.077 26.475C109.055 27.092 109.019 27.75 108.9 28.391C108.795 29.013 108.612 29.575 108.345 30.104C108.061 30.653 107.704 31.141 107.279 31.56C106.856 31.987 106.369 32.342 105.83 32.616C105.299 32.886 104.733 33.072 104.101 33.187C103.446 33.306 102.772 33.338 102.203 33.354C101.903 33.361 101.596 33.365 101.292 33.365C100.934 33.367 100.57 33.367 100.212 33.367H9.53302C9.16802 33.367 8.80702 33.367 8.43802 33.365C8.13702 33.365 7.83802 33.361 7.53702 33.355C6.96502 33.339 6.29202 33.307 5.63102 33.188C4.99802 33.074 4.43502 32.887 3.90902 32.617C3.37002 32.344 2.88202 31.988 2.45202 31.554C2.03002 31.139 1.67502 30.653 1.39702 30.107C1.12902 29.584 0.944024 29.021 0.833024 28.383C0.709024 27.702 0.678024 27.009 0.664024 26.479C0.658024 26.271 0.655024 26.068 0.653024 25.863L0.650024 25.576V24.482V9.53403V8.45302L0.654024 8.15402C0.656024 7.95002 0.659024 7.74602 0.665024 7.53902C0.678024 7.01102 0.710024 6.31802 0.835024 5.63202C0.945024 5.00202 1.12902 4.44002 1.39902 3.91102C1.67402 3.36802 2.02902 2.87902 2.45702 2.45602C2.88302 2.02902 3.37302 1.67302 3.91002 1.39802C4.44602 1.12502 5.00802 0.940024 5.63102 0.831024C6.31502 0.708024 7.00902 0.678024 7.53002 0.664024L7.72802 0.661024C7.96702 0.657024 8.20402 0.653024 8.44202 0.652024C8.80602 0.650024 9.16802 0.650024 9.53302 0.650024H100.211Z" fill="black"/><path d="M32.451 8.16901H8.35199V24.949H32.451V8.16901Z" fill="#DEDBCE"/><path d="M32.194 8.43597H8.63V18.433H32.194V8.43597Z" fill="#40A5D9"/><path fill-rule="evenodd" clip-rule="evenodd" d="M32.194 12.688C32.194 12.607 32.194 12.527 32.194 12.446C32.194 12.378 32.193 12.31 32.191 12.242C32.187 12.094 32.178 11.945 32.152 11.799C32.125 11.651 32.082 11.513 32.013 11.378C31.946 11.246 31.858 11.124 31.753 11.019C31.648 10.914 31.527 10.826 31.394 10.758C31.259 10.689 31.121 10.646 30.973 10.619C30.827 10.593 30.678 10.584 30.53 10.58C30.462 10.578 30.394 10.577 30.326 10.577C30.245 10.577 30.165 10.577 30.084 10.577H30.018H11.665H10.74C10.659 10.577 10.579 10.577 10.498 10.577C10.43 10.577 10.362 10.578 10.294 10.58C10.146 10.584 9.997 10.593 9.851 10.619C9.703 10.646 9.56501 10.689 9.43001 10.758C9.29801 10.825 9.176 10.913 9.071 11.019C8.966 11.124 8.878 11.245 8.811 11.378C8.742 11.513 8.699 11.651 8.672 11.799C8.646 11.945 8.63701 12.094 8.63301 12.242C8.63101 12.31 8.63 12.378 8.63 12.446C8.63 12.527 8.63 12.607 8.63 12.688V13.613V12.886V20.575H32.194V12.935V12.688Z" fill="#FFB003"/><path fill-rule="evenodd" clip-rule="evenodd" d="M32.194 14.83C32.194 14.749 32.194 14.669 32.194 14.588C32.194 14.52 32.193 14.452 32.191 14.384C32.187 14.236 32.178 14.087 32.152 13.941C32.125 13.793 32.082 13.655 32.013 13.52C31.946 13.388 31.858 13.266 31.753 13.161C31.648 13.056 31.527 12.968 31.394 12.9C31.259 12.831 31.121 12.788 30.973 12.761C30.827 12.735 30.678 12.726 30.53 12.722C30.462 12.72 30.394 12.719 30.326 12.719C30.245 12.719 30.165 12.719 30.084 12.719H30.017H11.665H10.74C10.659 12.719 10.579 12.719 10.498 12.719C10.43 12.719 10.362 12.72 10.294 12.722C10.146 12.726 9.997 12.735 9.851 12.761C9.703 12.788 9.56501 12.831 9.43001 12.9C9.29801 12.967 9.176 13.055 9.071 13.161C8.966 13.266 8.878 13.387 8.811 13.52C8.742 13.655 8.699 13.793 8.672 13.941C8.646 14.087 8.63701 14.236 8.63301 14.384C8.63101 14.452 8.63 14.52 8.63 14.588C8.63 14.669 8.63 14.749 8.63 14.83V15.755V15.028V22.717H32.194V15.077V14.83Z" fill="#40C740"/><path fill-rule="evenodd" clip-rule="evenodd" d="M32.194 16.972C32.194 16.891 32.194 16.811 32.194 16.73C32.194 16.662 32.193 16.594 32.191 16.526C32.187 16.378 32.178 16.229 32.152 16.083C32.125 15.935 32.082 15.797 32.013 15.662C31.946 15.53 31.858 15.408 31.753 15.303C31.648 15.198 31.527 15.11 31.394 15.042C31.259 14.973 31.121 14.93 30.973 14.903C30.827 14.877 30.678 14.868 30.53 14.864C30.462 14.862 30.394 14.861 30.326 14.861C30.245 14.861 30.165 14.861 30.084 14.861H30.017H11.665H10.74C10.659 14.861 10.579 14.861 10.498 14.861C10.43 14.861 10.362 14.862 10.294 14.864C10.146 14.868 9.997 14.877 9.851 14.903C9.703 14.93 9.56501 14.973 9.43001 15.042C9.29801 15.109 9.176 15.197 9.071 15.303C8.966 15.408 8.878 15.529 8.811 15.662C8.742 15.797 8.699 15.935 8.672 16.083C8.646 16.229 8.63701 16.378 8.63301 16.526C8.63101 16.594 8.63 16.662 8.63 16.73C8.63 16.811 8.63 16.891 8.63 16.972V17.897V17.17V24.859H32.194V17.219V16.972Z" fill="#F26D5F"/><path fill-rule="evenodd" clip-rule="evenodd" d="M7.20203 7.008V18.076H8.63003V11.471V10.546C8.63003 10.465 8.63003 10.385 8.63003 10.304C8.63003 10.236 8.63103 10.168 8.63303 10.1C8.63703 9.952 8.64603 9.803 8.67203 9.657C8.69903 9.509 8.74203 9.371 8.81103 9.236C8.87803 9.104 8.96603 8.982 9.07103 8.877C9.17703 8.773 9.29803 8.685 9.43003 8.618C9.56503 8.549 9.70303 8.506 9.85103 8.479C9.99703 8.453 10.146 8.444 10.294 8.44C10.362 8.438 10.43 8.437 10.498 8.437C10.579 8.437 10.659 8.437 10.74 8.437H11.665H30.013H30.084C30.165 8.437 30.245 8.437 30.326 8.437C30.394 8.437 30.462 8.438 30.53 8.44C30.678 8.444 30.827 8.453 30.973 8.479C31.121 8.506 31.259 8.549 31.394 8.618C31.526 8.685 31.648 8.773 31.753 8.879C31.858 8.984 31.946 9.105 32.013 9.238C32.082 9.373 32.125 9.511 32.152 9.659C32.178 9.805 32.187 9.954 32.191 10.102C32.193 10.17 32.194 10.238 32.194 10.306C32.194 10.387 32.194 10.467 32.194 10.548V11.473V18.078H33.622V7.008H7.20203Z" fill="#D9D6CC"/><path fill-rule="evenodd" clip-rule="evenodd" d="M26.985 17.005C26.832 17.005 26.678 17.005 26.525 17.006C26.396 17.007 26.267 17.008 26.138 17.012C25.857 17.02 25.573 17.036 25.295 17.086C25.013 17.137 24.75 17.22 24.494 17.35C24.461 17.367 23.756 17.687 23.122 18.673C22.641 19.422 21.705 20.216 20.395 20.216C19.085 20.216 18.149 19.422 17.668 18.673C17.001 17.634 16.24 17.322 16.295 17.35C16.039 17.219 15.776 17.137 15.494 17.086C15.216 17.036 14.932 17.019 14.651 17.012C14.522 17.009 14.393 17.007 14.264 17.006C14.111 17.005 13.957 17.005 13.804 17.005H7.20398V27.001H33.624V17.005H26.985Z" fill="#DEDBCE"/><path d="M41.23 17.661H42.581L45.507 25.718H44.195L43.458 23.541H40.353L39.61 25.718H38.298L41.23 17.661ZM40.688 22.536H43.117L41.917 18.996H41.895L40.688 22.536Z" fill="white"/><path d="M46.28 19.844H47.486V20.855H47.514C47.866 20.157 48.514 19.733 49.351 19.733C50.848 19.733 51.808 20.906 51.808 22.781V22.787C51.808 24.658 50.842 25.835 49.368 25.835C48.536 25.835 47.86 25.411 47.514 24.73H47.486V27.673H46.28V19.844ZM50.58 22.787V22.781C50.58 21.53 49.982 20.766 49.039 20.766C48.123 20.766 47.481 21.559 47.481 22.781V22.787C47.481 24.005 48.129 24.797 49.039 24.797C49.987 24.797 50.58 24.026 50.58 22.787Z" fill="white"/><path d="M52.999 19.844H54.205V20.855H54.233C54.585 20.157 55.232 19.733 56.07 19.733C57.567 19.733 58.527 20.906 58.527 22.781V22.787C58.527 24.658 57.561 25.835 56.087 25.835C55.255 25.835 54.579 25.411 54.233 24.73H54.205V27.673H52.999V19.844V19.844ZM57.298 22.787V22.781C57.298 21.53 56.7 20.766 55.757 20.766C54.841 20.766 54.199 21.559 54.199 22.781V22.787C54.199 24.005 54.847 24.797 55.757 24.797C56.706 24.797 57.298 24.026 57.298 22.787Z" fill="white"/><path d="M59.59 17.661H60.797V25.718H59.59V17.661Z" fill="white"/><path d="M61.97 22.803V22.797C61.97 20.96 63.031 19.732 64.679 19.732C66.327 19.732 67.337 20.915 67.337 22.68V23.088H63.178C63.2 24.199 63.809 24.846 64.769 24.846C65.484 24.846 65.959 24.478 66.11 24.037L66.127 23.992H67.271L67.26 24.054C67.071 24.986 66.165 25.835 64.742 25.835C63.015 25.835 61.97 24.657 61.97 22.803ZM63.194 22.234H66.142C66.041 21.218 65.472 20.721 64.685 20.721C63.902 20.721 63.299 21.251 63.194 22.234Z" fill="white"/><path d="M71.171 17.661H72.472L73.975 23.976H73.997L75.7 17.661H76.883L78.586 23.976H78.614L80.116 17.661H81.418L79.24 25.718H78.04L76.309 19.643H76.28L74.543 25.718H73.342L71.171 17.661Z" fill="white"/><path d="M81.761 24.048V24.037C81.761 23.015 82.555 22.39 83.945 22.306L85.541 22.211V21.77C85.541 21.123 85.122 20.731 84.374 20.731C83.676 20.731 83.246 21.061 83.146 21.53L83.134 21.581H81.996L82.001 21.519C82.085 20.508 82.962 19.732 84.408 19.732C85.843 19.732 86.753 20.492 86.753 21.669V25.717H85.541V24.79H85.519C85.178 25.421 84.498 25.823 83.721 25.823C82.549 25.824 81.761 25.104 81.761 24.048ZM84.05 24.859C84.898 24.859 85.541 24.284 85.541 23.518V23.06L84.106 23.15C83.381 23.194 82.978 23.512 82.978 24.009V24.021C82.978 24.534 83.403 24.859 84.05 24.859Z" fill="white"/><path d="M88.074 17.661H89.28V25.718H88.074V17.661Z" fill="white"/><path d="M90.9789 17.661H92.1849V25.718H90.9789V17.661Z" fill="white"/><path d="M93.245 22.803V22.797C93.245 20.96 94.305 19.732 95.953 19.732C97.601 19.732 98.612 20.915 98.612 22.68V23.088H94.452C94.474 24.199 95.083 24.846 96.044 24.846C96.759 24.846 97.233 24.478 97.384 24.037L97.402 23.992H98.546L98.535 24.054C98.345 24.986 97.44 25.835 96.016 25.835C94.289 25.835 93.245 24.657 93.245 22.803ZM94.468 22.234H97.417C97.316 21.218 96.747 20.721 95.959 20.721C95.177 20.721 94.574 21.251 94.468 22.234Z" fill="white"/><path d="M100.142 24.171V20.804H99.298V19.843H100.142V18.313H101.375V19.843H102.475V20.804H101.375V24.098C101.375 24.696 101.644 24.874 102.151 24.874C102.28 24.874 102.385 24.862 102.475 24.852V25.784C102.335 25.806 102.107 25.834 101.861 25.834C100.7 25.835 100.142 25.344 100.142 24.171Z" fill="white"/><path d="M42.193 12.483H39.785L39.177 14.216H38.384L40.616 8.16205H41.363L43.595 14.216H42.802L42.193 12.483ZM40.008 11.841H41.972L41.023 9.13905H40.956L40.008 11.841Z" fill="white"/><path d="M44.074 11.954C44.074 10.536 44.825 9.61303 45.975 9.61303C46.604 9.61303 47.137 9.91103 47.393 10.406H47.456V7.89703H48.178V14.215H47.49V13.493H47.423C47.138 13.996 46.601 14.294 45.975 14.294C44.817 14.295 44.074 13.376 44.074 11.954ZM44.821 11.954C44.821 13.011 45.316 13.645 46.143 13.645C46.965 13.645 47.473 12.999 47.473 11.954C47.473 10.918 46.961 10.263 46.143 10.263C45.32 10.263 44.821 10.901 44.821 11.954Z" fill="white"/><path d="M49.342 11.954C49.342 10.536 50.093 9.61303 51.243 9.61303C51.872 9.61303 52.405 9.91103 52.661 10.406H52.724V7.89703H53.446V14.215H52.758V13.493H52.69C52.405 13.996 51.868 14.294 51.242 14.294C50.084 14.295 49.342 13.376 49.342 11.954ZM50.088 11.954C50.088 13.011 50.583 13.645 51.41 13.645C52.232 13.645 52.74 12.999 52.74 11.954C52.74 10.918 52.228 10.263 51.41 10.263C50.587 10.263 50.088 10.901 50.088 11.954Z" fill="white"/><path d="M58.274 8.52203V9.69303H59.282V10.297H58.274V12.857C58.274 13.39 58.476 13.616 58.946 13.616C59.076 13.616 59.147 13.612 59.282 13.599V14.207C59.138 14.232 59.001 14.249 58.858 14.249C57.927 14.249 57.553 13.905 57.553 13.041V10.297H56.824V9.69303H57.553V8.52203H58.274Z" fill="white"/><path d="M60.072 11.954C60.072 10.498 60.87 9.61304 62.158 9.61304C63.446 9.61304 64.243 10.498 64.243 11.954C64.243 13.405 63.446 14.295 62.158 14.295C60.87 14.295 60.072 13.405 60.072 11.954ZM63.496 11.954C63.496 10.88 63.013 10.263 62.157 10.263C61.301 10.263 60.818 10.88 60.818 11.954C60.818 13.024 61.3 13.645 62.157 13.645C63.013 13.645 63.496 13.024 63.496 11.954Z" fill="white"/></g><defs><clipPath id="clip0_103_2774"><rect width="110.739" height="35.016" fill="white"/></clipPath></defs></svg> 